<svg width="56" height="56" viewBox="0 0 56 56" fill="none" xmlns="http://www.w3.org/2000/svg">
<rect width="56" height="56" rx="28" transform="matrix(1 0 0 -1 0 56)" fill="url(#paint0_linear_524_2)"/>
<path d="M19.732 24.2H21.928C24.016 24.2 25.348 23.912 26.32 23.12C27.508 22.184 28.192 20.744 28.192 18.692C28.192 14.84 25.708 13.184 21.964 13.184C20.992 13.184 20.38 13.22 20.056 13.256C19.876 13.256 19.732 13.364 19.732 14.048V24.2ZM14.296 35V34.496C17.5 34.352 17.788 33.74 17.788 30.896V16.46C17.788 13.616 17.5 13.22 14.476 13.004V12.464H22.972C26.536 12.464 30.424 13.544 30.424 18.152C30.424 21.212 28.804 23.012 26.032 24.272C26.608 25.388 28.12 27.692 29.236 29.204C30.964 31.328 33.484 34.424 35.32 34.856L35.212 35.324C31.936 35.324 30.208 35.144 24.772 26.252C23.872 24.956 22.792 24.92 19.732 24.92V30.896C19.732 33.74 20.02 34.352 23.116 34.496V35H14.296Z" fill="#CCCDD4"/>
<path d="M43.22 25.684H42.608C41.996 23.596 41.132 20.752 37.64 20.752C35.048 20.752 33.752 22.444 33.752 24.784C33.752 27.808 35.948 28.996 38.288 30.184C39.872 30.976 44.3 32.524 44.3 37.024C44.3 40.768 41.42 43.468 36.884 43.54C35.408 43.468 34.148 43.252 33.248 42.964C32.384 42.676 31.916 42.424 31.7 42.28C31.412 41.344 31.052 38.752 30.836 36.592H31.412C31.988 38.536 33.536 42.604 37.748 42.604C40.52 42.604 42.212 41.092 42.212 37.924C42.212 34.288 39.26 33.064 37.352 31.984C37.028 31.804 31.736 30.112 31.736 25.72C31.736 22.732 34.184 19.924 38.432 19.924C39.62 19.924 40.664 20.032 42.644 20.68C42.788 21.904 42.968 23.236 43.22 25.684Z" fill="#CCCDD4"/>
<defs>
<linearGradient id="paint0_linear_524_2" x1="14.5833" y1="8.16667" x2="74.6667" y2="70" gradientUnits="userSpaceOnUse">
<stop stop-color="#01002B"/>
<stop offset="0.260239" stop-color="#0A0866"/>
<stop offset="0.521155" stop-color="#2421A3"/>
<stop offset="0.670641" stop-color="#060397"/>
</linearGradient>
</defs>
</svg>
