<svg width="30" height="30" viewBox="0 0 30 30" fill="none" xmlns="http://www.w3.org/2000/svg">
<path fill-rule="evenodd" clip-rule="evenodd" d="M13.3134 1.8392C14.2832 2.48241 14.7681 3.68844 14.7681 5.45729C14.7681 6.44221 14.5678 7.24623 14.1672 7.86935C13.7878 8.49246 13.2607 8.97487 12.5861 9.31658C11.9325 9.65829 11.1947 9.8995 10.3725 10.0402C9.57133 10.1809 8.74912 10.2513 7.90583 10.2513C7.65284 10.2513 7.37878 10.2412 7.08362 10.2211C6.78847 10.201 6.52495 10.1508 6.29304 10.0704V1.68844C6.29304 1.40704 6.40899 1.21608 6.6409 1.11558C6.89388 0.994975 7.16795 0.924624 7.4631 0.904523C7.77934 0.864323 8.04286 0.844223 8.25369 0.844223H9.29726C11.026 0.844223 12.3647 1.17588 13.3134 1.8392ZM21.2509 22.0402C21.546 21.9598 21.6936 21.8492 21.6936 21.7085C21.6936 21.5477 21.5355 21.4673 21.2193 21.4673C20.9241 21.4673 20.7133 21.4573 20.5868 21.4372C20.0597 21.3367 19.617 21.1658 19.2586 20.9246C18.9213 20.6633 18.5945 20.3216 18.2783 19.8995C17.182 18.4121 16.0963 16.9045 15.0211 15.3769C13.967 13.8492 12.955 12.3015 11.9852 10.7337L13.2502 10.4925C13.6718 10.392 14.0829 10.2513 14.4835 10.0704C14.8966 9.89197 15.281 9.68748 15.6365 9.45688C15.5067 9.58522 15.3824 9.71936 15.2635 9.8593C14.5467 10.7035 14.1884 11.7688 14.1884 13.0553C14.1884 13.8191 14.4203 14.5226 14.8841 15.1658C15.369 15.809 15.9487 16.3819 16.6233 16.8844C17.3191 17.3668 17.9937 17.7688 18.6472 18.0905C19.3219 18.392 19.986 18.7035 20.6395 19.0251C21.3141 19.3467 21.9782 19.6683 22.6318 19.99L23.201 20.2312C23.3907 20.3116 23.5699 20.402 23.7386 20.5025C24.4765 20.9045 25.1511 21.4573 25.7625 22.1608C26.3739 22.8442 26.6796 23.6181 26.6796 24.4824C26.6796 25.5879 26.4266 26.4724 25.9206 27.1357C25.4357 27.799 24.7611 28.2814 23.8967 28.5829C23.0534 28.8643 22.0942 29.005 21.019 29.005C19.7119 29.005 18.6367 28.7638 17.7934 28.2814C16.9712 27.799 16.3493 26.9548 15.9276 25.7487C15.8433 25.4673 15.7695 25.196 15.7063 24.9347C15.643 24.6533 15.5692 24.3719 15.4849 24.0905C15.4427 23.8694 15.3795 23.6985 15.2952 23.5779C15.2108 23.4372 15.0211 23.3668 14.7259 23.3668C14.3886 23.3668 14.1673 23.4472 14.0619 23.608C13.9775 23.7487 13.9354 23.9598 13.9354 24.2412C13.9354 24.8643 14.0302 25.5578 14.22 26.3216C14.4308 27.0854 14.5784 27.7889 14.6627 28.4322C15.1476 28.5528 15.6114 28.7136 16.0541 28.9146C16.4969 29.0955 16.9501 29.2663 17.4139 29.4271C18.5524 29.809 19.7646 30 21.0506 30C22.0415 30 23.0534 29.9096 24.0865 29.7286C25.1406 29.5276 26.1103 29.206 26.9958 28.7638C27.9023 28.3015 28.6297 27.6884 29.1778 26.9246C29.7259 26.1608 30 25.206 30 24.0603C30 22.995 29.7681 22.0905 29.3043 21.3467C28.8405 20.603 28.2186 19.9699 27.4385 19.4472C26.6796 18.9045 25.8468 18.4322 24.9403 18.0302C24.0337 17.6281 23.1167 17.2362 22.1891 16.8543C21.2825 16.4724 20.4392 16.0704 19.6592 15.6482C18.9002 15.206 18.2888 14.6935 17.825 14.1106C17.3612 13.5276 17.1293 12.8141 17.1293 11.9699C17.1293 10.7035 17.4877 9.7387 18.2045 9.07538C18.9424 8.41206 19.9649 8.0804 21.272 8.0804C23.0429 8.0804 24.3711 8.49246 25.2565 9.31659C26.142 10.1206 26.7217 11.3266 26.9958 12.9347L27.0907 13.3869C27.1117 13.4874 27.2593 13.5377 27.5334 13.5377C27.8075 13.5377 28.0499 13.4975 28.2607 13.4171C28.4926 13.3166 28.6086 13.1055 28.6086 12.7839C28.6086 12.7035 28.598 12.6231 28.577 12.5427C28.577 12.4623 28.5664 12.3819 28.5453 12.3015C28.4188 11.6985 28.324 11.0955 28.2607 10.4925L28.071 8.68342C27.2699 8.60302 26.532 8.46231 25.8574 8.26131C25.1827 8.0402 24.4976 7.82915 23.8018 7.62814C23.1272 7.42714 22.3577 7.32664 21.4933 7.32664C20.2917 7.32664 19.1321 7.53769 18.0148 7.9598C17.5342 8.14134 17.0907 8.36191 16.6843 8.62152C16.8686 8.4414 17.0415 8.25097 17.2031 8.05025C17.9199 7.16583 18.2783 6.1206 18.2783 4.91457C18.2783 3.94975 18.0253 3.15578 17.5193 2.53266C17.0344 1.88945 16.402 1.38694 15.6219 1.02513C14.8419 0.663318 13.9986 0.402011 13.0921 0.241206C12.2066 0.0804022 11.3633 0 10.5622 0C9.59241 0 8.62263 0.0402011 7.65284 0.120603C6.68306 0.201005 5.70274 0.241206 4.71187 0.241206C3.99508 0.241206 3.27828 0.221106 2.56149 0.180906C1.86578 0.140704 1.15952 0.120603 0.442727 0.120603C0.231904 0.120603 0.126493 0.231156 0.126493 0.452263C0.126493 0.79397 0.28461 0.964824 0.600843 0.964824H0.980323C1.10682 0.944724 1.23331 0.934674 1.3598 0.934674C1.67604 0.934674 2.02389 0.964825 2.40337 1.02513C2.80393 1.06533 3.0253 1.28643 3.06746 1.68844C3.10963 2.17086 3.13071 2.67337 3.13071 3.19598V4.70352C3.13071 6.09045 3.12017 7.47739 3.09909 8.86432V13.0251V15.0452V17.0352V18.8141C3.12017 19.4774 3.10963 20.0603 3.06746 20.5628C3.0253 20.9447 2.81448 21.1759 2.435 21.2563C2.0766 21.3166 1.73928 21.3467 1.42305 21.3467H0.885453C0.716795 21.3266 0.537597 21.3166 0.347857 21.3166C0.115952 21.3166 0 21.4472 0 21.7085C0 21.7889 0.0105411 21.8894 0.0316233 22.01C0.0737878 22.1106 0.158117 22.1608 0.28461 22.1608C0.790583 22.1608 1.28602 22.1508 1.77091 22.1307C2.27688 22.0905 2.78285 22.0704 3.28883 22.0704C4.21644 22.0704 5.1546 22.0905 6.1033 22.1307C7.052 22.1508 7.99016 22.1608 8.91778 22.1608C9.06535 22.1608 9.1813 22.1407 9.26563 22.1005C9.37105 22.0402 9.42375 21.9296 9.42375 21.7688C9.42375 21.6683 9.40267 21.5578 9.3605 21.4372C9.33942 21.3166 9.25509 21.2563 9.10752 21.2563C8.83345 21.2563 8.55938 21.2663 8.28531 21.2864C8.01124 21.3065 7.72663 21.3166 7.43148 21.3166C7.17849 21.3166 6.92551 21.2663 6.67252 21.1658C6.41953 21.0653 6.29304 20.8643 6.29304 20.5628V11.005L9.01265 10.9146C9.96135 12.5628 10.91 14.201 11.8587 15.8291C12.8285 17.4573 13.8299 19.0653 14.863 20.6533C15.3479 21.3769 15.8433 21.8291 16.3493 22.01C16.8552 22.1709 17.5299 22.2513 18.3731 22.2513H19.0689C19.4273 22.2513 19.8067 22.2312 20.2073 22.191C20.6079 22.1709 20.9557 22.1206 21.2509 22.0402Z" fill="#E1DED9"/>
</svg>
